<svg xmlns="http://www.w3.org/2000/svg" xmlns:xlink="http://www.w3.org/1999/xlink" width="500" zoomAndPan="magnify" viewBox="0 0 375 149.999998" height="200" preserveAspectRatio="xMidYMid meet" version="1.0"><defs><clipPath id="8d8003a2db"><path d="M 19.386719 118.605469 L 35.078125 118.605469 L 35.078125 143.875 L 19.386719 143.875 Z M 19.386719 118.605469 " clip-rule="nonzero"/></clipPath><clipPath id="c66fb5d9fe"><path d="M 30.128906 125.730469 C 30.128906 124.742188 29.964844 123.953125 29.648438 123.355469 C 29.328125 122.757812 28.898438 122.308594 28.359375 121.992188 C 27.820312 121.671875 27.222656 121.460938 26.550781 121.367188 C 25.878906 121.269531 25.214844 121.222656 24.542969 121.222656 L 22.609375 121.222656 L 22.609375 130.546875 L 24.582031 130.546875 C 25.597656 130.546875 26.457031 130.421875 27.15625 130.164062 C 27.859375 129.902344 28.425781 129.566406 28.867188 129.132812 C 29.3125 128.703125 29.628906 128.191406 29.828125 127.605469 C 30.03125 127.019531 30.128906 126.382812 30.128906 125.722656 M 31.175781 143.769531 L 23.582031 132.847656 L 22.617188 132.847656 L 22.617188 143.789062 L 19.472656 143.789062 L 19.472656 118.617188 L 26.222656 118.617188 C 27.320312 118.617188 28.3125 118.796875 29.195312 119.152344 C 30.078125 119.507812 30.820312 120.007812 31.425781 120.644531 C 32.03125 121.277344 32.492188 122.027344 32.8125 122.894531 C 33.128906 123.757812 33.292969 124.710938 33.292969 125.730469 C 33.292969 126.644531 33.117188 127.492188 32.773438 128.277344 C 32.425781 129.066406 31.972656 129.777344 31.398438 130.394531 C 30.820312 131.007812 30.15625 131.507812 29.40625 131.902344 C 28.65625 132.296875 27.878906 132.527344 27.070312 132.605469 L 35.070312 143.777344 Z M 31.175781 143.769531 " clip-rule="nonzero"/></clipPath><clipPath id="36c81edbde"><path d="M 54.367188 118.617188 L 57.628906 118.617188 L 57.628906 128.75 L 54.367188 128.75 Z M 39.089844 118.617188 L 42.425781 118.617188 L 42.425781 128.75 L 39.089844 128.75 Z M 39.089844 128.75 L 57.628906 128.75 L 57.628906 131.605469 L 39.089844 131.605469 Z M 39.089844 131.605469 L 42.425781 131.605469 L 42.425781 143.789062 L 39.089844 143.789062 Z M 54.367188 131.605469 L 57.628906 131.605469 L 57.628906 143.789062 L 54.367188 143.789062 Z M 54.367188 131.605469 " clip-rule="nonzero"/></clipPath><clipPath id="943961a024"><path d="M 60.628906 118.605469 L 79.789062 118.605469 L 79.789062 143.875 L 60.628906 143.875 Z M 60.628906 118.605469 " clip-rule="nonzero"/></clipPath><clipPath id="68277655eb"><path d="M 71.734375 132.730469 L 71.734375 143.789062 L 68.445312 143.789062 L 68.445312 132.972656 L 60.636719 118.617188 L 64.253906 118.617188 L 70.050781 129.953125 L 76.117188 118.617188 L 79.734375 118.617188 Z M 71.734375 132.730469 " clip-rule="nonzero"/></clipPath><clipPath id="de2108c32f"><path d="M 82.148438 118.046875 L 108.253906 118.046875 L 108.253906 144.152344 L 82.148438 144.152344 Z M 82.148438 118.046875 " clip-rule="nonzero"/></clipPath><clipPath id="4ebcc454c0"><path d="M 104.90625 131.203125 C 104.90625 129.894531 104.664062 128.644531 104.183594 127.460938 C 103.703125 126.277344 103.03125 125.242188 102.175781 124.347656 C 101.320312 123.453125 100.289062 122.742188 99.097656 122.210938 C 97.90625 121.683594 96.597656 121.421875 95.175781 121.421875 C 93.730469 121.421875 92.40625 121.683594 91.195312 122.210938 C 89.984375 122.742188 88.953125 123.441406 88.097656 124.347656 C 87.242188 125.25 86.578125 126.308594 86.109375 127.539062 C 85.636719 128.769531 85.40625 130.085938 85.40625 131.480469 C 85.40625 132.738281 85.65625 133.933594 86.144531 135.058594 C 86.636719 136.183594 87.328125 137.183594 88.195312 138.046875 C 89.058594 138.914062 90.097656 139.605469 91.289062 140.113281 C 92.480469 140.625 93.789062 140.875 95.214844 140.875 C 96.445312 140.875 97.636719 140.632812 98.789062 140.152344 C 99.945312 139.671875 100.972656 139 101.886719 138.144531 C 102.800781 137.289062 103.53125 136.269531 104.078125 135.085938 C 104.625 133.902344 104.90625 132.605469 104.90625 131.183594 M 108.203125 131.066406 C 108.203125 132.777344 107.875 134.421875 107.222656 135.988281 C 106.570312 137.558594 105.664062 138.941406 104.53125 140.132812 C 103.394531 141.328125 102.058594 142.277344 100.550781 142.988281 C 99.039062 143.703125 97.425781 144.058594 95.703125 144.058594 L 95.097656 144.058594 C 93.25 144.058594 91.539062 143.730469 89.972656 143.066406 C 88.40625 142.402344 87.039062 141.507812 85.894531 140.355469 C 84.75 139.203125 83.839844 137.835938 83.183594 136.257812 C 82.53125 134.683594 82.203125 132.972656 82.203125 131.152344 C 82.203125 129.355469 82.550781 127.671875 83.234375 126.085938 C 83.914062 124.5 84.839844 123.125 86 121.941406 C 87.164062 120.757812 88.539062 119.828125 90.097656 119.144531 C 91.65625 118.460938 93.328125 118.132812 95.097656 118.132812 C 96.894531 118.132812 98.589844 118.480469 100.183594 119.164062 C 101.78125 119.847656 103.164062 120.769531 104.347656 121.941406 C 105.53125 123.117188 106.460938 124.472656 107.164062 126.039062 C 107.867188 127.605469 108.210938 129.289062 108.210938 131.085938 " clip-rule="nonzero"/></clipPath><clipPath id="b7692a709c"><path d="M 111 118.324219 L 126.859375 118.324219 L 126.859375 144.152344 L 111 144.152344 Z M 111 118.324219 " clip-rule="nonzero"/></clipPath><clipPath id="6371c33626"><path d="M 126.816406 136.710938 C 126.816406 137.703125 126.597656 138.644531 126.15625 139.527344 C 125.710938 140.414062 125.125 141.191406 124.386719 141.855469 C 123.644531 142.519531 122.78125 143.058594 121.769531 143.441406 C 120.761719 143.828125 119.703125 144.027344 118.566406 144.027344 C 117.472656 144.027344 116.480469 143.816406 115.597656 143.382812 C 114.710938 142.953125 113.953125 142.414062 113.308594 141.757812 C 112.664062 141.105469 112.144531 140.375 111.761719 139.585938 C 111.375 138.796875 111.125 138.039062 111.019531 137.316406 L 114.195312 136.835938 C 114.433594 138.203125 115 139.257812 115.886719 139.988281 C 116.769531 140.722656 117.828125 141.097656 119.058594 141.097656 C 120.394531 141.097656 121.519531 140.683594 122.414062 139.863281 C 123.308594 139.046875 123.789062 137.980469 123.847656 136.671875 L 123.847656 136.558594 C 123.847656 135.644531 123.585938 134.816406 123.058594 134.085938 C 122.53125 133.355469 121.722656 132.738281 120.625 132.257812 L 117.453125 130.894531 C 115.710938 130.144531 114.460938 129.316406 113.695312 128.421875 C 112.925781 127.527344 112.550781 126.335938 112.550781 124.867188 C 112.550781 123.953125 112.722656 123.105469 113.070312 122.308594 C 113.414062 121.507812 113.894531 120.835938 114.519531 120.257812 C 115.144531 119.683594 115.875 119.230469 116.75 118.914062 C 117.625 118.597656 118.566406 118.433594 119.585938 118.433594 C 120.980469 118.433594 122.203125 118.75 123.25 119.394531 C 124.300781 120.039062 125.15625 120.921875 125.828125 122.046875 L 123.375 123.539062 C 123.03125 123.027344 122.703125 122.625 122.386719 122.335938 C 122.066406 122.046875 121.761719 121.816406 121.441406 121.652344 C 121.125 121.492188 120.789062 121.375 120.441406 121.316406 C 120.097656 121.257812 119.703125 121.210938 119.28125 121.210938 L 119.203125 121.210938 C 118.078125 121.210938 117.175781 121.546875 116.492188 122.210938 C 115.808594 122.875 115.460938 123.683594 115.460938 124.625 C 115.460938 124.941406 115.492188 125.277344 115.539062 125.625 C 115.585938 125.972656 115.722656 126.296875 115.945312 126.585938 C 116.125 126.828125 116.328125 127.019531 116.550781 127.171875 C 116.769531 127.328125 117.039062 127.472656 117.375 127.632812 C 117.710938 127.796875 118.136719 127.972656 118.644531 128.152344 C 119.15625 128.335938 119.800781 128.597656 120.578125 128.914062 C 122.769531 129.828125 124.367188 130.894531 125.367188 132.105469 C 126.367188 133.316406 126.855469 134.855469 126.855469 136.710938 " clip-rule="nonzero"/></clipPath><clipPath id="f7f9e93d0f"><path d="M 175.65625 4.75 L 200.265625 4.75 L 200.265625 75.769531 L 175.65625 75.769531 Z M 175.65625 4.75 " clip-rule="nonzero"/></clipPath><clipPath id="1abedf31b9"><path d="M 200.167969 4.808594 C 200.167969 4.808594 155.445312 31.441406 186.832031 75.691406 C 186.832031 75.691406 166.753906 33.703125 200.167969 4.808594 " clip-rule="nonzero"/></clipPath><clipPath id="a489579dfd"><path d="M 183.859375 12 L 200.265625 12 L 200.265625 102.535156 L 183.859375 102.535156 Z M 183.859375 12 " clip-rule="nonzero"/></clipPath><clipPath id="ddc9f9d394"><path d="M 200.167969 12.027344 C 200.167969 12.027344 180.273438 29.414062 186.832031 54.019531 C 193.386719 78.625 190.234375 89.679688 183.90625 102.324219 C 183.90625 102.324219 210.117188 89.902344 194.167969 52.210938 C 194.167969 52.210938 186.617188 29.644531 200.167969 12.039062 " clip-rule="nonzero"/></clipPath><clipPath id="ea478475f4"><path d="M 164.214844 33.027344 L 204.582031 33.027344 L 204.582031 58.714844 L 164.214844 58.714844 Z M 164.214844 33.027344 " clip-rule="nonzero"/></clipPath><clipPath id="f233a56aa3"><path d="M 194.867188 33.269531 C 194.867188 33.269531 194.867188 33.277344 194.867188 33.277344 C 195.109375 33.382812 201.964844 36.507812 197.234375 42.132812 C 192.347656 47.921875 186.273438 51.605469 164.273438 58.527344 C 164.273438 58.527344 188.957031 56.796875 202.503906 43.613281 C 207.898438 38.363281 201.0625 31.730469 194.867188 33.269531 " clip-rule="nonzero"/></clipPath><clipPath id="d19e6135a0"><path d="M 170.042969 43.605469 L 209.976562 43.605469 L 209.976562 69.292969 L 170.042969 69.292969 Z M 170.042969 43.605469 " clip-rule="nonzero"/></clipPath><clipPath id="b253959931"><path d="M 200.773438 43.855469 C 200.773438 43.855469 200.773438 43.863281 200.773438 43.863281 C 201.011719 43.96875 207.867188 47.09375 203.136719 52.710938 C 198.261719 58.507812 192.175781 62.179688 170.1875 69.113281 C 170.1875 69.113281 197.898438 65.902344 207.828125 54.835938 C 213.320312 48.710938 206.972656 42.316406 200.78125 43.855469 " clip-rule="nonzero"/></clipPath><clipPath id="f0dd7d0c78"><path d="M 139.425781 118.617188 L 152.832031 118.617188 L 152.832031 143.8125 L 139.425781 143.8125 Z M 139.425781 118.617188 " clip-rule="nonzero"/></clipPath><clipPath id="97d0693b98"><path d="M 139.519531 143.78125 L 139.519531 118.617188 L 152.828125 118.617188 L 152.828125 121.675781 L 142.777344 121.675781 L 142.777344 128.589844 L 152.828125 128.589844 L 152.828125 131.648438 L 142.777344 131.648438 L 142.777344 140.734375 L 152.828125 140.734375 L 152.828125 143.792969 Z M 139.519531 143.78125 " clip-rule="nonzero"/></clipPath><clipPath id="ef39a7f5ca"><path d="M 156.515625 117 L 178.765625 117 L 178.765625 145.285156 L 156.515625 145.285156 Z M 156.515625 117 " clip-rule="nonzero"/></clipPath><clipPath id="175494b7a1"><path d="M 178.71875 145.195312 L 159.777344 125.53125 L 159.777344 143.78125 L 156.566406 143.78125 L 156.566406 117.089844 L 175.5 137.273438 L 175.5 118.617188 L 178.71875 118.617188 Z M 178.71875 145.195312 " clip-rule="nonzero"/></clipPath><clipPath id="b92059b1d8"><path d="M 183.035156 118.175781 L 207.640625 118.175781 L 207.640625 144.105469 L 183.035156 144.105469 Z M 183.035156 118.175781 " clip-rule="nonzero"/></clipPath><clipPath id="2b6e1d6462"><path d="M 207.625 131.847656 C 207.625 133.453125 207.375 135.003906 206.882812 136.472656 C 206.394531 137.945312 205.652344 139.253906 204.671875 140.378906 C 203.691406 141.503906 202.480469 142.398438 201.027344 143.050781 C 199.574219 143.703125 197.894531 144.042969 195.960938 144.042969 C 194.054688 144.042969 192.316406 143.695312 190.730469 142.992188 C 189.144531 142.292969 187.789062 141.359375 186.652344 140.175781 C 185.519531 138.992188 184.632812 137.628906 184 136.078125 C 183.363281 134.53125 183.058594 132.878906 183.058594 131.136719 C 183.058594 129.367188 183.394531 127.703125 184.058594 126.15625 C 184.71875 124.609375 185.652344 123.234375 186.824219 122.0625 C 188 120.886719 189.375 119.945312 190.949219 119.261719 C 192.527344 118.582031 194.210938 118.234375 196.039062 118.234375 C 198.074219 118.234375 199.914062 118.617188 201.546875 119.378906 C 203.179688 120.136719 204.71875 121.292969 206.171875 122.820312 L 204 125.109375 C 203.566406 124.734375 203.171875 124.367188 202.796875 124.023438 C 202.421875 123.675781 202.074219 123.398438 201.75 123.175781 C 200.921875 122.589844 200.007812 122.148438 199.039062 121.867188 C 198.066406 121.589844 197.105469 121.445312 196.164062 121.445312 C 194.769531 121.445312 193.46875 121.6875 192.277344 122.167969 C 191.085938 122.648438 190.046875 123.320312 189.179688 124.175781 C 188.316406 125.03125 187.625 126.050781 187.132812 127.234375 C 186.644531 128.417969 186.394531 129.695312 186.394531 131.089844 C 186.394531 132.425781 186.632812 133.695312 187.113281 134.886719 C 187.59375 136.078125 188.269531 137.117188 189.125 138.003906 C 189.980469 138.886719 191.007812 139.589844 192.199219 140.109375 C 193.394531 140.628906 194.699219 140.886719 196.125 140.886719 C 197.191406 140.886719 198.191406 140.722656 199.113281 140.40625 C 200.039062 140.089844 200.855469 139.628906 201.566406 139.042969 C 202.277344 138.453125 202.855469 137.742188 203.296875 136.90625 C 203.738281 136.070312 204 135.15625 204.085938 134.136719 L 197.96875 134.136719 L 197.96875 131.117188 L 207.625 131.117188 Z M 207.625 131.847656 " clip-rule="nonzero"/></clipPath><clipPath id="1d9aaff96f"><path d="M 212.0625 118.617188 L 225.46875 118.617188 L 225.46875 143.8125 L 212.0625 143.8125 Z M 212.0625 118.617188 " clip-rule="nonzero"/></clipPath><clipPath id="d300765a25"><path d="M 212.125 143.78125 L 212.125 118.617188 L 225.429688 118.617188 L 225.429688 121.675781 L 215.382812 121.675781 L 215.382812 128.589844 L 225.429688 128.589844 L 225.429688 131.648438 L 215.382812 131.648438 L 215.382812 140.734375 L 225.429688 140.734375 L 225.429688 143.792969 Z M 212.125 143.78125 " clip-rule="nonzero"/></clipPath><clipPath id="1482eb8129"><path d="M 229.152344 117 L 251.398438 117 L 251.398438 145.285156 L 229.152344 145.285156 Z M 229.152344 117 " clip-rule="nonzero"/></clipPath><clipPath id="3e0f5ba856"><path d="M 251.324219 145.195312 L 232.382812 125.53125 L 232.382812 143.78125 L 229.171875 143.78125 L 229.171875 117.089844 L 248.101562 137.273438 L 248.101562 118.617188 L 251.324219 118.617188 Z M 251.324219 145.195312 " clip-rule="nonzero"/></clipPath><clipPath id="552c63b361"><path d="M 271.421875 118.617188 L 274.679688 118.617188 L 274.679688 128.753906 L 271.421875 128.753906 Z M 256.140625 118.617188 L 259.476562 118.617188 L 259.476562 128.753906 L 256.140625 128.753906 Z M 256.140625 128.753906 L 274.679688 128.753906 L 274.679688 131.597656 L 256.140625 131.597656 Z M 256.140625 131.597656 L 259.476562 131.597656 L 259.476562 143.78125 L 256.140625 143.78125 Z M 271.421875 131.597656 L 274.679688 131.597656 L 274.679688 143.78125 L 271.421875 143.78125 Z M 271.421875 131.597656 " clip-rule="nonzero"/></clipPath><clipPath id="2e99c87960"><path d="M 277.625 118.324219 L 301.347656 118.324219 L 301.347656 143.8125 L 277.625 143.8125 Z M 277.625 118.324219 " clip-rule="nonzero"/></clipPath><clipPath id="b93275e464"><path d="M 285.007812 134.898438 L 294.167969 134.898438 L 289.632812 124.847656 Z M 289.46875 118.457031 L 289.796875 118.457031 L 301.332031 143.78125 L 298.035156 143.78125 L 295.304688 137.472656 L 283.804688 137.472656 L 280.988281 143.78125 L 277.691406 143.78125 Z M 289.46875 118.457031 " clip-rule="nonzero"/></clipPath><clipPath id="d54049bc60"><path d="M 304.441406 118.617188 L 320.207031 118.617188 L 320.207031 143.8125 L 304.441406 143.8125 Z M 304.441406 118.617188 " clip-rule="nonzero"/></clipPath><clipPath id="b8c7e5ada0"><path d="M 315.199219 125.734375 C 315.199219 124.742188 315.035156 123.953125 314.71875 123.359375 C 314.398438 122.761719 313.96875 122.3125 313.429688 121.992188 C 312.890625 121.675781 312.292969 121.464844 311.621094 121.367188 C 310.949219 121.273438 310.285156 121.222656 309.613281 121.222656 L 307.679688 121.222656 L 307.679688 130.550781 L 309.652344 130.550781 C 310.667969 130.550781 311.523438 130.425781 312.226562 130.167969 C 312.929688 129.90625 313.496094 129.570312 313.9375 129.136719 C 314.382812 128.703125 314.699219 128.195312 314.898438 127.609375 C 315.101562 127.023438 315.199219 126.386719 315.199219 125.722656 M 316.246094 143.773438 L 308.652344 132.839844 L 307.6875 132.839844 L 307.6875 143.78125 L 304.554688 143.78125 L 304.554688 118.617188 L 311.304688 118.617188 C 312.398438 118.617188 313.390625 118.800781 314.273438 119.15625 C 315.160156 119.511719 315.898438 120.011719 316.507812 120.648438 C 317.113281 121.28125 317.574219 122.03125 317.890625 122.898438 C 318.207031 123.761719 318.371094 124.714844 318.371094 125.734375 C 318.371094 126.648438 318.199219 127.492188 317.851562 128.28125 C 317.507812 129.070312 317.042969 129.773438 316.46875 130.386719 C 315.890625 131.003906 315.226562 131.503906 314.476562 131.898438 C 313.726562 132.292969 312.949219 132.523438 312.148438 132.597656 L 320.148438 143.773438 Z M 316.246094 143.773438 " clip-rule="nonzero"/></clipPath><clipPath id="294ab2e02c"><path d="M 324.804688 118.617188 L 328.023438 118.617188 L 328.023438 143.78125 L 324.804688 143.78125 Z M 324.804688 118.617188 " clip-rule="nonzero"/></clipPath><clipPath id="06c4adf63c"><path d="M 331.84375 118.324219 L 355.566406 118.324219 L 355.566406 143.8125 L 331.84375 143.8125 Z M 331.84375 118.324219 " clip-rule="nonzero"/></clipPath><clipPath id="222001d2d7"><path d="M 339.199219 134.898438 L 348.359375 134.898438 L 343.824219 124.847656 Z M 343.660156 118.457031 L 343.976562 118.457031 L 355.515625 143.78125 L 352.21875 143.78125 L 349.484375 137.472656 L 337.996094 137.472656 L 335.179688 143.78125 L 331.878906 143.78125 Z M 343.660156 118.457031 " clip-rule="nonzero"/></clipPath></defs><g clip-path="url(#8d8003a2db)"><g clip-path="url(#c66fb5d9fe)"><path fill="#ffffff" d="M 14.667969 113.328125 L 131.582031 113.328125 L 131.582031 148.875 L 14.667969 148.875 Z M 14.667969 113.328125 " fill-opacity="1" fill-rule="nonzero"/></g></g><g clip-path="url(#36c81edbde)"><path fill="#ffffff" d="M 14.667969 113.328125 L 131.582031 113.328125 L 131.582031 148.875 L 14.667969 148.875 Z M 14.667969 113.328125 " fill-opacity="1" fill-rule="nonzero"/></g><g clip-path="url(#943961a024)"><g clip-path="url(#68277655eb)"><path fill="#ffffff" d="M 14.667969 113.328125 L 131.582031 113.328125 L 131.582031 148.875 L 14.667969 148.875 Z M 14.667969 113.328125 " fill-opacity="1" fill-rule="nonzero"/></g></g><g clip-path="url(#de2108c32f)"><g clip-path="url(#4ebcc454c0)"><path fill="#ffffff" d="M 14.667969 113.328125 L 131.582031 113.328125 L 131.582031 148.875 L 14.667969 148.875 Z M 14.667969 113.328125 " fill-opacity="1" fill-rule="nonzero"/></g></g><g clip-path="url(#b7692a709c)"><g clip-path="url(#6371c33626)"><path fill="#ffffff" d="M 14.667969 113.328125 L 131.582031 113.328125 L 131.582031 148.875 L 14.667969 148.875 Z M 14.667969 113.328125 " fill-opacity="1" fill-rule="nonzero"/></g></g><g clip-path="url(#f7f9e93d0f)"><g clip-path="url(#1abedf31b9)"><path fill="#ffffff" d="M 159.464844 0 L 214.726562 0 L 214.726562 107.070312 L 159.464844 107.070312 Z M 159.464844 0 " fill-opacity="1" fill-rule="nonzero"/></g></g><g clip-path="url(#a489579dfd)"><g clip-path="url(#ddc9f9d394)"><path fill="#ffffff" d="M 159.464844 0 L 214.726562 0 L 214.726562 107.070312 L 159.464844 107.070312 Z M 159.464844 0 " fill-opacity="1" fill-rule="nonzero"/></g></g><g clip-path="url(#ea478475f4)"><g clip-path="url(#f233a56aa3)"><path fill="#ffffff" d="M 159.464844 0 L 214.726562 0 L 214.726562 107.070312 L 159.464844 107.070312 Z M 159.464844 0 " fill-opacity="1" fill-rule="nonzero"/></g></g><g clip-path="url(#d19e6135a0)"><g clip-path="url(#b253959931)"><path fill="#ffffff" d="M 159.464844 0 L 214.726562 0 L 214.726562 107.070312 L 159.464844 107.070312 Z M 159.464844 0 " fill-opacity="1" fill-rule="nonzero"/></g></g><g clip-path="url(#f0dd7d0c78)"><g clip-path="url(#97d0693b98)"><path fill="#ffffff" d="M 134.710938 112.28125 L 360.28125 112.28125 L 360.28125 150 L 134.710938 150 Z M 134.710938 112.28125 " fill-opacity="1" fill-rule="nonzero"/></g></g><g clip-path="url(#ef39a7f5ca)"><g clip-path="url(#175494b7a1)"><path fill="#ffffff" d="M 134.710938 112.28125 L 360.28125 112.28125 L 360.28125 150 L 134.710938 150 Z M 134.710938 112.28125 " fill-opacity="1" fill-rule="nonzero"/></g></g><g clip-path="url(#b92059b1d8)"><g clip-path="url(#2b6e1d6462)"><path fill="#ffffff" d="M 134.710938 112.28125 L 360.28125 112.28125 L 360.28125 150 L 134.710938 150 Z M 134.710938 112.28125 " fill-opacity="1" fill-rule="nonzero"/></g></g><g clip-path="url(#1d9aaff96f)"><g clip-path="url(#d300765a25)"><path fill="#ffffff" d="M 134.710938 112.28125 L 360.28125 112.28125 L 360.28125 150 L 134.710938 150 Z M 134.710938 112.28125 " fill-opacity="1" fill-rule="nonzero"/></g></g><g clip-path="url(#1482eb8129)"><g clip-path="url(#3e0f5ba856)"><path fill="#ffffff" d="M 134.710938 112.28125 L 360.28125 112.28125 L 360.28125 150 L 134.710938 150 Z M 134.710938 112.28125 " fill-opacity="1" fill-rule="nonzero"/></g></g><g clip-path="url(#552c63b361)"><path fill="#ffffff" d="M 134.710938 112.28125 L 360.28125 112.28125 L 360.28125 150 L 134.710938 150 Z M 134.710938 112.28125 " fill-opacity="1" fill-rule="nonzero"/></g><g clip-path="url(#2e99c87960)"><g clip-path="url(#b93275e464)"><path fill="#ffffff" d="M 134.710938 112.28125 L 360.28125 112.28125 L 360.28125 150 L 134.710938 150 Z M 134.710938 112.28125 " fill-opacity="1" fill-rule="nonzero"/></g></g><g clip-path="url(#d54049bc60)"><g clip-path="url(#b8c7e5ada0)"><path fill="#ffffff" d="M 134.710938 112.28125 L 360.28125 112.28125 L 360.28125 150 L 134.710938 150 Z M 134.710938 112.28125 " fill-opacity="1" fill-rule="nonzero"/></g></g><g clip-path="url(#294ab2e02c)"><path fill="#ffffff" d="M 134.710938 112.28125 L 360.28125 112.28125 L 360.28125 150 L 134.710938 150 Z M 134.710938 112.28125 " fill-opacity="1" fill-rule="nonzero"/></g><g clip-path="url(#06c4adf63c)"><g clip-path="url(#222001d2d7)"><path fill="#ffffff" d="M 134.710938 112.28125 L 360.28125 112.28125 L 360.28125 150 L 134.710938 150 Z M 134.710938 112.28125 " fill-opacity="1" fill-rule="nonzero"/></g></g></svg>