<svg xmlns="http://www.w3.org/2000/svg" xmlns:xlink="http://www.w3.org/1999/xlink" width="500" zoomAndPan="magnify" viewBox="0 0 375 149.999998" height="200" preserveAspectRatio="xMidYMid meet" version="1.0"><defs><clipPath id="33b766763e"><path d="M 67.195312 63.828125 L 81.175781 63.828125 L 81.175781 86.34375 L 67.195312 86.34375 Z M 67.195312 63.828125 " clip-rule="nonzero"/></clipPath><clipPath id="96bb515205"><path d="M 76.765625 70.179688 C 76.765625 69.296875 76.617188 68.59375 76.335938 68.0625 C 76.054688 67.53125 75.667969 67.128906 75.1875 66.847656 C 74.707031 66.566406 74.175781 66.375 73.578125 66.289062 C 72.976562 66.203125 72.386719 66.160156 71.789062 66.160156 L 70.066406 66.160156 L 70.066406 74.472656 L 71.820312 74.472656 C 72.730469 74.472656 73.492188 74.359375 74.117188 74.128906 C 74.742188 73.898438 75.25 73.597656 75.640625 73.210938 C 76.035156 72.828125 76.320312 72.371094 76.5 71.851562 C 76.679688 71.328125 76.765625 70.761719 76.765625 70.171875 M 77.699219 86.25 L 70.929688 76.519531 L 70.074219 76.519531 L 70.074219 86.265625 L 67.273438 86.265625 L 67.273438 63.839844 L 73.285156 63.839844 C 74.261719 63.839844 75.144531 64.003906 75.933594 64.320312 C 76.722656 64.636719 77.382812 65.082031 77.921875 65.648438 C 78.460938 66.214844 78.871094 66.882812 79.15625 67.652344 C 79.4375 68.421875 79.582031 69.273438 79.582031 70.179688 C 79.582031 70.992188 79.429688 71.746094 79.121094 72.449219 C 78.8125 73.152344 78.410156 73.785156 77.894531 74.335938 C 77.382812 74.882812 76.789062 75.328125 76.121094 75.679688 C 75.453125 76.03125 74.761719 76.234375 74.039062 76.304688 L 81.167969 86.257812 Z M 77.699219 86.25 " clip-rule="nonzero"/></clipPath><clipPath id="1dea5be3c2"><path d="M 98.359375 63.839844 L 101.265625 63.839844 L 101.265625 72.871094 L 98.359375 72.871094 Z M 84.75 63.839844 L 87.722656 63.839844 L 87.722656 72.871094 L 84.75 72.871094 Z M 84.75 72.871094 L 101.265625 72.871094 L 101.265625 75.414062 L 84.75 75.414062 Z M 84.75 75.414062 L 87.722656 75.414062 L 87.722656 86.265625 L 84.75 86.265625 Z M 98.359375 75.414062 L 101.265625 75.414062 L 101.265625 86.265625 L 98.359375 86.265625 Z M 98.359375 75.414062 " clip-rule="nonzero"/></clipPath><clipPath id="ecdd468462"><path d="M 103.9375 63.828125 L 121 63.828125 L 121 86.34375 L 103.9375 86.34375 Z M 103.9375 63.828125 " clip-rule="nonzero"/></clipPath><clipPath id="18218a8717"><path d="M 113.832031 76.417969 L 113.832031 86.265625 L 110.902344 86.265625 L 110.902344 76.628906 L 103.945312 63.839844 L 107.167969 63.839844 L 112.332031 73.941406 L 117.738281 63.839844 L 120.960938 63.839844 Z M 113.832031 76.417969 " clip-rule="nonzero"/></clipPath><clipPath id="a365633db7"><path d="M 123.113281 63.335938 L 146.371094 63.335938 L 146.371094 86.59375 L 123.113281 86.59375 Z M 123.113281 63.335938 " clip-rule="nonzero"/></clipPath><clipPath id="e3eb63ff05"><path d="M 143.386719 75.054688 C 143.386719 73.890625 143.171875 72.773438 142.742188 71.722656 C 142.316406 70.667969 141.714844 69.742188 140.953125 68.945312 C 140.191406 68.148438 139.273438 67.515625 138.210938 67.042969 C 137.148438 66.574219 135.984375 66.34375 134.71875 66.34375 C 133.433594 66.34375 132.25 66.574219 131.171875 67.042969 C 130.089844 67.515625 129.175781 68.140625 128.410156 68.945312 C 127.648438 69.75 127.058594 70.695312 126.636719 71.789062 C 126.21875 72.886719 126.011719 74.058594 126.011719 75.300781 C 126.011719 76.425781 126.234375 77.488281 126.671875 78.488281 C 127.109375 79.492188 127.726562 80.382812 128.496094 81.152344 C 129.269531 81.925781 130.195312 82.542969 131.257812 82.996094 C 132.316406 83.449219 133.484375 83.671875 134.75 83.671875 C 135.847656 83.671875 136.910156 83.457031 137.9375 83.03125 C 138.964844 82.601562 139.882812 82 140.695312 81.238281 C 141.511719 80.476562 142.160156 79.570312 142.648438 78.515625 C 143.136719 77.460938 143.386719 76.304688 143.386719 75.035156 M 146.324219 74.933594 C 146.324219 76.457031 146.035156 77.921875 145.449219 79.320312 C 144.867188 80.714844 144.0625 81.949219 143.050781 83.011719 C 142.042969 84.074219 140.851562 84.921875 139.503906 85.554688 C 138.160156 86.191406 136.722656 86.507812 135.1875 86.507812 L 134.648438 86.507812 C 133.003906 86.507812 131.480469 86.214844 130.082031 85.625 C 128.6875 85.035156 127.46875 84.238281 126.449219 83.210938 C 125.429688 82.179688 124.617188 80.964844 124.035156 79.558594 C 123.453125 78.15625 123.160156 76.628906 123.160156 75.011719 C 123.160156 73.410156 123.46875 71.910156 124.078125 70.496094 C 124.683594 69.082031 125.507812 67.859375 126.542969 66.804688 C 127.582031 65.75 128.804688 64.917969 130.195312 64.3125 C 131.582031 63.703125 133.070312 63.414062 134.648438 63.414062 C 136.25 63.414062 137.757812 63.71875 139.179688 64.328125 C 140.601562 64.9375 141.835938 65.757812 142.890625 66.804688 C 143.941406 67.847656 144.773438 69.058594 145.398438 70.453125 C 146.023438 71.851562 146.332031 73.347656 146.332031 74.953125 " clip-rule="nonzero"/></clipPath><clipPath id="aae60da136"><path d="M 148.71875 63.582031 L 162.945312 63.582031 L 162.945312 86.59375 L 148.71875 86.59375 Z M 148.71875 63.582031 " clip-rule="nonzero"/></clipPath><clipPath id="8218b2bec6"><path d="M 162.910156 79.960938 C 162.910156 80.84375 162.710938 81.683594 162.316406 82.472656 C 161.925781 83.261719 161.402344 83.953125 160.742188 84.546875 C 160.082031 85.136719 159.3125 85.617188 158.410156 85.960938 C 157.511719 86.300781 156.570312 86.480469 155.558594 86.480469 C 154.582031 86.480469 153.699219 86.292969 152.914062 85.90625 C 152.125 85.523438 151.445312 85.042969 150.875 84.460938 C 150.300781 83.878906 149.835938 83.226562 149.492188 82.523438 C 149.152344 81.820312 148.929688 81.144531 148.835938 80.503906 L 151.660156 80.074219 C 151.875 81.289062 152.382812 82.234375 153.167969 82.882812 C 153.957031 83.535156 154.898438 83.867188 155.996094 83.867188 C 157.1875 83.867188 158.1875 83.5 158.984375 82.773438 C 159.78125 82.042969 160.210938 81.09375 160.261719 79.929688 L 160.261719 79.824219 C 160.261719 79.011719 160.03125 78.273438 159.558594 77.625 C 159.089844 76.972656 158.367188 76.425781 157.390625 75.996094 L 154.566406 74.78125 C 153.015625 74.113281 151.902344 73.375 151.214844 72.578125 C 150.53125 71.78125 150.195312 70.71875 150.195312 69.410156 C 150.195312 68.59375 150.351562 67.839844 150.660156 67.128906 C 150.96875 66.417969 151.394531 65.820312 151.953125 65.304688 C 152.507812 64.792969 153.160156 64.390625 153.941406 64.105469 C 154.71875 63.824219 155.558594 63.675781 156.46875 63.675781 C 157.710938 63.675781 158.796875 63.960938 159.730469 64.535156 C 160.664062 65.109375 161.425781 65.894531 162.027344 66.898438 L 159.84375 68.226562 C 159.535156 67.773438 159.242188 67.414062 158.960938 67.15625 C 158.675781 66.898438 158.402344 66.691406 158.121094 66.546875 C 157.835938 66.402344 157.539062 66.300781 157.230469 66.246094 C 156.921875 66.195312 156.570312 66.152344 156.191406 66.152344 L 156.125 66.152344 C 155.121094 66.152344 154.316406 66.453125 153.707031 67.042969 C 153.101562 67.636719 152.792969 68.355469 152.792969 69.195312 C 152.792969 69.476562 152.816406 69.777344 152.859375 70.085938 C 152.902344 70.394531 153.023438 70.683594 153.21875 70.941406 C 153.382812 71.15625 153.5625 71.328125 153.761719 71.464844 C 153.957031 71.601562 154.195312 71.730469 154.496094 71.875 C 154.796875 72.019531 155.171875 72.175781 155.628906 72.339844 C 156.082031 72.5 156.65625 72.734375 157.347656 73.015625 C 159.304688 73.828125 160.726562 74.78125 161.617188 75.859375 C 162.507812 76.9375 162.945312 78.308594 162.945312 79.960938 " clip-rule="nonzero"/></clipPath><clipPath id="1df2c5c413"><path d="M 16.191406 26.183594 L 40.796875 26.183594 L 40.796875 97.203125 L 16.191406 97.203125 Z M 16.191406 26.183594 " clip-rule="nonzero"/></clipPath><clipPath id="25397a8224"><path d="M 40.699219 26.242188 C 40.699219 26.242188 -4.019531 52.875 27.363281 97.125 C 27.363281 97.125 7.289062 55.136719 40.699219 26.242188 " clip-rule="nonzero"/></clipPath><clipPath id="0949224501"><path d="M 24.394531 33.304688 L 40.796875 33.304688 L 40.796875 123.96875 L 24.394531 123.96875 Z M 24.394531 33.304688 " clip-rule="nonzero"/></clipPath><clipPath id="198f57972e"><path d="M 40.699219 33.460938 C 40.699219 33.460938 20.808594 50.847656 27.363281 75.453125 C 33.921875 100.058594 30.769531 111.113281 24.441406 123.757812 C 24.441406 123.757812 50.652344 111.335938 34.703125 73.644531 C 34.703125 73.644531 27.152344 51.078125 40.699219 33.472656 " clip-rule="nonzero"/></clipPath><clipPath id="a63d0b1839"><path d="M 4.75 54.460938 L 45 54.460938 L 45 80 L 4.75 80 Z M 4.75 54.460938 " clip-rule="nonzero"/></clipPath><clipPath id="ab4bf86a89"><path d="M 35.402344 54.703125 C 35.402344 54.703125 35.402344 54.710938 35.402344 54.710938 C 35.644531 54.816406 42.5 57.941406 37.769531 63.566406 C 32.882812 69.355469 26.808594 73.039062 4.808594 79.960938 C 4.808594 79.960938 29.488281 78.230469 43.039062 65.046875 C 48.433594 59.796875 41.59375 53.164062 35.402344 54.703125 " clip-rule="nonzero"/></clipPath><clipPath id="344a0f6f87"><path d="M 10.578125 65.039062 L 50.511719 65.039062 L 50.511719 90.726562 L 10.578125 90.726562 Z M 10.578125 65.039062 " clip-rule="nonzero"/></clipPath><clipPath id="ce08b2bb78"><path d="M 41.308594 65.289062 C 41.308594 65.289062 41.308594 65.296875 41.308594 65.296875 C 41.546875 65.402344 48.402344 68.527344 43.671875 74.144531 C 38.796875 79.941406 32.710938 83.613281 10.722656 90.546875 C 10.722656 90.546875 38.433594 87.335938 48.363281 76.269531 C 53.855469 70.144531 47.507812 63.75 41.316406 65.289062 " clip-rule="nonzero"/></clipPath><clipPath id="2bc13b6b22"><path d="M 174.140625 63.84375 L 186.085938 63.84375 L 186.085938 86.289062 L 174.140625 86.289062 Z M 174.140625 63.84375 " clip-rule="nonzero"/></clipPath><clipPath id="6706ff8721"><path d="M 174.226562 86.261719 L 174.226562 63.84375 L 186.082031 63.84375 L 186.082031 66.566406 L 177.128906 66.566406 L 177.128906 72.726562 L 186.082031 72.726562 L 186.082031 75.449219 L 177.128906 75.449219 L 177.128906 83.546875 L 186.082031 83.546875 L 186.082031 86.269531 Z M 174.226562 86.261719 " clip-rule="nonzero"/></clipPath><clipPath id="c235d16056"><path d="M 189.367188 62.398438 L 209.191406 62.398438 L 209.191406 87.601562 L 189.367188 87.601562 Z M 189.367188 62.398438 " clip-rule="nonzero"/></clipPath><clipPath id="bd868314fa"><path d="M 209.152344 87.519531 L 192.273438 70.003906 L 192.273438 86.261719 L 189.414062 86.261719 L 189.414062 62.480469 L 206.28125 80.460938 L 206.28125 63.84375 L 209.152344 63.84375 Z M 209.152344 87.519531 " clip-rule="nonzero"/></clipPath><clipPath id="f1c9aba68e"><path d="M 213 63.449219 L 234.917969 63.449219 L 234.917969 86.550781 L 213 86.550781 Z M 213 63.449219 " clip-rule="nonzero"/></clipPath><clipPath id="18ebcbae27"><path d="M 234.902344 75.628906 C 234.902344 77.0625 234.679688 78.441406 234.242188 79.75 C 233.804688 81.0625 233.144531 82.226562 232.273438 83.230469 C 231.398438 84.230469 230.320312 85.027344 229.023438 85.609375 C 227.730469 86.191406 226.234375 86.492188 224.511719 86.492188 C 222.8125 86.492188 221.265625 86.183594 219.851562 85.558594 C 218.4375 84.933594 217.230469 84.101562 216.21875 83.050781 C 215.207031 81.996094 214.417969 80.78125 213.855469 79.398438 C 213.289062 78.019531 213.015625 76.546875 213.015625 74.996094 C 213.015625 73.421875 213.3125 71.9375 213.90625 70.558594 C 214.496094 69.179688 215.328125 67.957031 216.371094 66.910156 C 217.417969 65.863281 218.640625 65.027344 220.046875 64.417969 C 221.453125 63.808594 222.953125 63.5 224.578125 63.5 C 226.394531 63.5 228.03125 63.84375 229.488281 64.519531 C 230.945312 65.195312 232.316406 66.226562 233.609375 67.585938 L 231.671875 69.625 C 231.285156 69.292969 230.933594 68.964844 230.601562 68.65625 C 230.265625 68.347656 229.957031 68.101562 229.667969 67.902344 C 228.929688 67.382812 228.117188 66.988281 227.25 66.738281 C 226.386719 66.492188 225.53125 66.363281 224.691406 66.363281 C 223.449219 66.363281 222.292969 66.574219 221.230469 67.003906 C 220.167969 67.433594 219.242188 68.03125 218.472656 68.792969 C 217.699219 69.558594 217.082031 70.464844 216.648438 71.519531 C 216.210938 72.574219 215.988281 73.710938 215.988281 74.953125 C 215.988281 76.144531 216.199219 77.277344 216.628906 78.335938 C 217.058594 79.398438 217.65625 80.324219 218.417969 81.113281 C 219.183594 81.902344 220.097656 82.527344 221.160156 82.988281 C 222.222656 83.453125 223.386719 83.683594 224.65625 83.683594 C 225.605469 83.683594 226.496094 83.539062 227.320312 83.253906 C 228.144531 82.972656 228.871094 82.5625 229.503906 82.039062 C 230.140625 81.515625 230.652344 80.882812 231.046875 80.136719 C 231.441406 79.390625 231.671875 78.578125 231.75 77.667969 L 226.300781 77.667969 L 226.300781 74.980469 L 234.902344 74.980469 Z M 234.902344 75.628906 " clip-rule="nonzero"/></clipPath><clipPath id="9e6ca2cd94"><path d="M 238.855469 63.84375 L 250.800781 63.84375 L 250.800781 86.289062 L 238.855469 86.289062 Z M 238.855469 63.84375 " clip-rule="nonzero"/></clipPath><clipPath id="a3c75475bb"><path d="M 238.910156 86.261719 L 238.910156 63.84375 L 250.765625 63.84375 L 250.765625 66.566406 L 241.816406 66.566406 L 241.816406 72.726562 L 250.765625 72.726562 L 250.765625 75.449219 L 241.816406 75.449219 L 241.816406 83.546875 L 250.765625 83.546875 L 250.765625 86.269531 Z M 238.910156 86.261719 " clip-rule="nonzero"/></clipPath><clipPath id="898c003c08"><path d="M 254.082031 62.398438 L 273.902344 62.398438 L 273.902344 87.601562 L 254.082031 87.601562 Z M 254.082031 62.398438 " clip-rule="nonzero"/></clipPath><clipPath id="b0f740a01d"><path d="M 273.835938 87.519531 L 256.960938 70.003906 L 256.960938 86.261719 L 254.097656 86.261719 L 254.097656 62.480469 L 270.96875 80.460938 L 270.96875 63.84375 L 273.835938 63.84375 Z M 273.835938 87.519531 " clip-rule="nonzero"/></clipPath><clipPath id="b8cf5ff48c"><path d="M 291.742188 63.84375 L 294.644531 63.84375 L 294.644531 72.871094 L 291.742188 72.871094 Z M 278.128906 63.84375 L 281.101562 63.84375 L 281.101562 72.871094 L 278.128906 72.871094 Z M 278.128906 72.871094 L 294.644531 72.871094 L 294.644531 75.40625 L 278.128906 75.40625 Z M 278.128906 75.40625 L 281.101562 75.40625 L 281.101562 86.261719 L 278.128906 86.261719 Z M 291.742188 75.40625 L 294.644531 75.40625 L 294.644531 86.261719 L 291.742188 86.261719 Z M 291.742188 75.40625 " clip-rule="nonzero"/></clipPath><clipPath id="d06bedd4b2"><path d="M 297.269531 63.578125 L 318.402344 63.578125 L 318.402344 86.289062 L 297.269531 86.289062 Z M 297.269531 63.578125 " clip-rule="nonzero"/></clipPath><clipPath id="d8d086421b"><path d="M 303.84375 78.347656 L 312.007812 78.347656 L 307.964844 69.394531 Z M 307.820312 63.699219 L 308.113281 63.699219 L 318.390625 86.261719 L 315.453125 86.261719 L 313.019531 80.640625 L 302.773438 80.640625 L 300.265625 86.261719 L 297.328125 86.261719 Z M 307.820312 63.699219 " clip-rule="nonzero"/></clipPath><clipPath id="6a502cf8f6"><path d="M 321.160156 63.84375 L 335.203125 63.84375 L 335.203125 86.289062 L 321.160156 86.289062 Z M 321.160156 63.84375 " clip-rule="nonzero"/></clipPath><clipPath id="156844349d"><path d="M 330.746094 70.183594 C 330.746094 69.300781 330.597656 68.597656 330.316406 68.066406 C 330.035156 67.535156 329.648438 67.132812 329.167969 66.851562 C 328.6875 66.566406 328.15625 66.378906 327.558594 66.292969 C 326.957031 66.207031 326.367188 66.164062 325.765625 66.164062 L 324.046875 66.164062 L 324.046875 74.472656 L 325.800781 74.472656 C 326.710938 74.472656 327.472656 74.363281 328.097656 74.132812 C 328.722656 73.898438 329.226562 73.601562 329.621094 73.214844 C 330.015625 72.828125 330.296875 72.375 330.480469 71.851562 C 330.660156 71.332031 330.746094 70.765625 330.746094 70.175781 M 331.679688 86.253906 L 324.910156 76.511719 L 324.054688 76.511719 L 324.054688 86.261719 L 321.261719 86.261719 L 321.261719 63.84375 L 327.273438 63.84375 C 328.25 63.84375 329.132812 64.007812 329.921875 64.324219 C 330.710938 64.640625 331.371094 65.085938 331.910156 65.652344 C 332.449219 66.214844 332.859375 66.882812 333.144531 67.65625 C 333.425781 68.425781 333.570312 69.273438 333.570312 70.183594 C 333.570312 70.996094 333.417969 71.75 333.109375 72.453125 C 332.800781 73.15625 332.390625 73.78125 331.875 74.328125 C 331.359375 74.878906 330.769531 75.324219 330.101562 75.671875 C 329.433594 76.023438 328.738281 76.230469 328.027344 76.300781 L 335.15625 86.253906 Z M 331.679688 86.253906 " clip-rule="nonzero"/></clipPath><clipPath id="70481e6179"><path d="M 339.300781 63.84375 L 342.171875 63.84375 L 342.171875 86.261719 L 339.300781 86.261719 Z M 339.300781 63.84375 " clip-rule="nonzero"/></clipPath><clipPath id="e76287de0f"><path d="M 345.574219 63.578125 L 366.707031 63.578125 L 366.707031 86.289062 L 345.574219 86.289062 Z M 345.574219 63.578125 " clip-rule="nonzero"/></clipPath><clipPath id="051d782e87"><path d="M 352.125 78.347656 L 360.289062 78.347656 L 356.246094 69.394531 Z M 356.101562 63.699219 L 356.382812 63.699219 L 366.664062 86.261719 L 363.726562 86.261719 L 361.292969 80.640625 L 351.054688 80.640625 L 348.546875 86.261719 L 345.605469 86.261719 Z M 356.101562 63.699219 " clip-rule="nonzero"/></clipPath></defs><g clip-path="url(#33b766763e)"><g clip-path="url(#96bb515205)"><path fill="#ffffff" d="M 62.988281 59.128906 L 167.152344 59.128906 L 167.152344 90.796875 L 62.988281 90.796875 Z M 62.988281 59.128906 " fill-opacity="1" fill-rule="nonzero"/></g></g><g clip-path="url(#1dea5be3c2)"><path fill="#ffffff" d="M 62.988281 59.128906 L 167.152344 59.128906 L 167.152344 90.796875 L 62.988281 90.796875 Z M 62.988281 59.128906 " fill-opacity="1" fill-rule="nonzero"/></g><g clip-path="url(#ecdd468462)"><g clip-path="url(#18218a8717)"><path fill="#ffffff" d="M 62.988281 59.128906 L 167.152344 59.128906 L 167.152344 90.796875 L 62.988281 90.796875 Z M 62.988281 59.128906 " fill-opacity="1" fill-rule="nonzero"/></g></g><g clip-path="url(#a365633db7)"><g clip-path="url(#e3eb63ff05)"><path fill="#ffffff" d="M 62.988281 59.128906 L 167.152344 59.128906 L 167.152344 90.796875 L 62.988281 90.796875 Z M 62.988281 59.128906 " fill-opacity="1" fill-rule="nonzero"/></g></g><g clip-path="url(#aae60da136)"><g clip-path="url(#8218b2bec6)"><path fill="#ffffff" d="M 62.988281 59.128906 L 167.152344 59.128906 L 167.152344 90.796875 L 62.988281 90.796875 Z M 62.988281 59.128906 " fill-opacity="1" fill-rule="nonzero"/></g></g><g clip-path="url(#1df2c5c413)"><g clip-path="url(#25397a8224)"><path fill="#ffffff" d="M 0 21.433594 L 55.261719 21.433594 L 55.261719 128.503906 L 0 128.503906 Z M 0 21.433594 " fill-opacity="1" fill-rule="nonzero"/></g></g><g clip-path="url(#0949224501)"><g clip-path="url(#198f57972e)"><path fill="#ffffff" d="M 0 21.433594 L 55.261719 21.433594 L 55.261719 128.503906 L 0 128.503906 Z M 0 21.433594 " fill-opacity="1" fill-rule="nonzero"/></g></g><g clip-path="url(#a63d0b1839)"><g clip-path="url(#ab4bf86a89)"><path fill="#ffffff" d="M 0 21.433594 L 55.261719 21.433594 L 55.261719 128.503906 L 0 128.503906 Z M 0 21.433594 " fill-opacity="1" fill-rule="nonzero"/></g></g><g clip-path="url(#344a0f6f87)"><g clip-path="url(#ce08b2bb78)"><path fill="#ffffff" d="M 0 21.433594 L 55.261719 21.433594 L 55.261719 128.503906 L 0 128.503906 Z M 0 21.433594 " fill-opacity="1" fill-rule="nonzero"/></g></g><g clip-path="url(#2bc13b6b22)"><g clip-path="url(#6706ff8721)"><path fill="#ffffff" d="M 169.941406 58.199219 L 370.910156 58.199219 L 370.910156 91.800781 L 169.941406 91.800781 Z M 169.941406 58.199219 " fill-opacity="1" fill-rule="nonzero"/></g></g><g clip-path="url(#c235d16056)"><g clip-path="url(#bd868314fa)"><path fill="#ffffff" d="M 169.941406 58.199219 L 370.910156 58.199219 L 370.910156 91.800781 L 169.941406 91.800781 Z M 169.941406 58.199219 " fill-opacity="1" fill-rule="nonzero"/></g></g><g clip-path="url(#f1c9aba68e)"><g clip-path="url(#18ebcbae27)"><path fill="#ffffff" d="M 169.941406 58.199219 L 370.910156 58.199219 L 370.910156 91.800781 L 169.941406 91.800781 Z M 169.941406 58.199219 " fill-opacity="1" fill-rule="nonzero"/></g></g><g clip-path="url(#9e6ca2cd94)"><g clip-path="url(#a3c75475bb)"><path fill="#ffffff" d="M 169.941406 58.199219 L 370.910156 58.199219 L 370.910156 91.800781 L 169.941406 91.800781 Z M 169.941406 58.199219 " fill-opacity="1" fill-rule="nonzero"/></g></g><g clip-path="url(#898c003c08)"><g clip-path="url(#b0f740a01d)"><path fill="#ffffff" d="M 169.941406 58.199219 L 370.910156 58.199219 L 370.910156 91.800781 L 169.941406 91.800781 Z M 169.941406 58.199219 " fill-opacity="1" fill-rule="nonzero"/></g></g><g clip-path="url(#b8cf5ff48c)"><path fill="#ffffff" d="M 169.941406 58.199219 L 370.910156 58.199219 L 370.910156 91.800781 L 169.941406 91.800781 Z M 169.941406 58.199219 " fill-opacity="1" fill-rule="nonzero"/></g><g clip-path="url(#d06bedd4b2)"><g clip-path="url(#d8d086421b)"><path fill="#ffffff" d="M 169.941406 58.199219 L 370.910156 58.199219 L 370.910156 91.800781 L 169.941406 91.800781 Z M 169.941406 58.199219 " fill-opacity="1" fill-rule="nonzero"/></g></g><g clip-path="url(#6a502cf8f6)"><g clip-path="url(#156844349d)"><path fill="#ffffff" d="M 169.941406 58.199219 L 370.910156 58.199219 L 370.910156 91.800781 L 169.941406 91.800781 Z M 169.941406 58.199219 " fill-opacity="1" fill-rule="nonzero"/></g></g><g clip-path="url(#70481e6179)"><path fill="#ffffff" d="M 169.941406 58.199219 L 370.910156 58.199219 L 370.910156 91.800781 L 169.941406 91.800781 Z M 169.941406 58.199219 " fill-opacity="1" fill-rule="nonzero"/></g><g clip-path="url(#e76287de0f)"><g clip-path="url(#051d782e87)"><path fill="#ffffff" d="M 169.941406 58.199219 L 370.910156 58.199219 L 370.910156 91.800781 L 169.941406 91.800781 Z M 169.941406 58.199219 " fill-opacity="1" fill-rule="nonzero"/></g></g></svg>